<svg id="Smock_Code_18_N" xmlns="http://www.w3.org/2000/svg" width="18" height="18" viewBox="0 0 18 18">
  <rect id="Canvas" width="18" height="18" fill="#ff13dc" opacity="0"/>
  <path id="Path_36105" data-name="Path 36105" d="M8.226,14.473a.5.5,0,0,1-.483.371H7.227a.5.5,0,0,1-.472-.666L9.786,2.693a.5.5,0,0,1,.483-.37h.5a.5.5,0,0,1,.472.665Z" fill="#707070"/>
  <path id="Path_36106" data-name="Path 36106" d="M17.746,9.53l-4.095,4.16a.5.5,0,0,1-.713,0l-.446-.453a.5.5,0,0,1,0-.7L15.971,9,12.492,5.464a.5.5,0,0,1,0-.7l.446-.454a.5.5,0,0,1,.713,0l4.095,4.16A.76.76,0,0,1,17.746,9.53Z" fill="#707070"/>
  <path id="Path_36107" data-name="Path 36107" d="M.254,8.47l4.1-4.161a.5.5,0,0,1,.713,0l.446.454a.5.5,0,0,1,0,.7L2.029,9l3.479,3.535a.5.5,0,0,1,0,.7l-.446.453a.5.5,0,0,1-.713,0L.254,9.53a.76.76,0,0,1,0-1.06Z" fill="#707070"/>
</svg>
