<svg width="261" height="60" viewBox="0 0 261 60" fill="none" xmlns="http://www.w3.org/2000/svg">
<path d="M40.3125 6.90625C40.3125 9.32292 40.2083 12.9479 40 17.7812C39.8125 22.5938 39.7188 26.2083 39.7188 28.625C39.7188 29.3125 39.7292 30.3333 39.75 31.6875C39.7708 33.0417 39.7812 34.0625 39.7812 34.75C39.7812 40.5417 38.9479 44.4062 37.2812 46.3438C34.7604 49.3438 28.6458 50.8438 18.9375 50.8438C13.4583 50.8438 9.40625 50.2917 6.78125 49.1875C4.32292 48.1458 2.67708 46.4167 1.84375 44C1.21875 42.1458 0.90625 39.0938 0.90625 34.8438C0.90625 34.2396 0.916667 33.25 0.9375 31.875C0.9375 30.5 0.9375 29.4167 0.9375 28.625C0.9375 26.2083 0.833333 22.5833 0.625 17.75C0.4375 12.8958 0.34375 9.26042 0.34375 6.84375C0.34375 6.38542 0.59375 6.15625 1.09375 6.15625C2.63542 6.15625 4.95833 6.17708 8.0625 6.21875C11.1875 6.26042 13.5208 6.28125 15.0625 6.28125C16.3958 6.28125 16.9062 6.27083 16.5938 6.25C17.3021 6.3125 17.6562 6.54167 17.6562 6.9375C17.6562 9.33333 17.5417 12.9375 17.3125 17.75C17.1042 22.5625 17 26.1667 17 28.5625C17 28.8333 16.9896 29.3021 16.9688 29.9688C16.9479 30.6354 16.9375 31.1458 16.9375 31.5C16.9375 35.5208 18.1771 37.5312 20.6562 37.5312C22.6771 37.5312 23.6875 35.9792 23.6875 32.875C23.6875 30.0417 23.5938 25.7812 23.4062 20.0938C23.2396 14.4062 23.1562 10.1458 23.1562 7.3125C23.1562 6.6875 23.3333 6.36458 23.6875 6.34375C24.4375 6.26042 25.7396 6.25 27.5938 6.3125C30.0938 6.375 31.4479 6.40625 31.6562 6.40625C32.5312 6.40625 33.8438 6.36458 35.5938 6.28125C37.3438 6.19792 38.6562 6.15625 39.5312 6.15625C40.0521 6.15625 40.3125 6.40625 40.3125 6.90625ZM82.5 35.1562C82.5 39.5938 81.1354 43.3229 78.4062 46.3438C75.5729 49.4688 71.9688 51.0312 67.5938 51.0312C65.8854 51.0312 63.7396 50.3438 61.1562 48.9688C60.9688 48.9688 60.875 49.2708 60.875 49.875C60.875 50.8125 60.8542 52.2083 60.8125 54.0625C60.7708 55.9167 60.75 57.3125 60.75 58.25C60.75 59.3125 60.3021 59.8438 59.4062 59.8438C53.0729 59.8438 48.8646 59.7604 46.7812 59.5938C45.8854 59.5312 45.4375 59.0833 45.4375 58.25V34.0625C45.4375 29.7708 45.0938 25.3958 44.4062 20.9375C44.3646 20.6667 44.3438 20.4688 44.3438 20.3438C44.3438 19.9479 44.5208 19.6771 44.875 19.5312C47.0833 19.3438 49.6771 19.1146 52.6562 18.8438C52.6771 18.8229 53.9792 18.6042 56.5625 18.1875C58.375 17.8958 59.6146 17.75 60.2812 17.75C60.9062 17.75 61.3021 18.1667 61.4688 19C61.6562 19.8125 61.875 20.2188 62.125 20.2188C62.5208 20.2188 63.3438 20.0833 64.5938 19.8125C65.8438 19.5417 66.8021 19.4062 67.4688 19.4062C71.8438 19.4062 75.4583 20.9375 78.3125 24C81.1042 27 82.5 30.7188 82.5 35.1562ZM66.6875 34.9062C66.6875 34.0729 66.4062 33.3542 65.8438 32.75C65.3021 32.125 64.625 31.8125 63.8125 31.8125C62.9792 31.8125 62.2917 32.125 61.75 32.75C61.2083 33.3542 60.9375 34.0729 60.9375 34.9062C60.9375 35.6979 61.2188 36.4062 61.7812 37.0312C62.3438 37.6562 63.0208 37.9688 63.8125 37.9688C64.625 37.9688 65.3021 37.6667 65.8438 37.0625C66.4062 36.4583 66.6875 35.7396 66.6875 34.9062ZM111.812 17.25C111.812 17.3333 110.917 17.9792 109.125 19.1875C107.354 20.3958 106.469 21.6667 106.469 23C106.469 23.9375 107.271 25.7812 108.875 28.5312C110.479 31.2604 111.281 33.7188 111.281 35.9062C111.281 38.5938 110.656 40.9688 109.406 43.0312C108.094 45.2188 105.615 47.375 101.969 49.5C98.9062 51.2708 95.8229 52.6146 92.7188 53.5312C92.4479 53.5938 92.2396 53.625 92.0938 53.625C91.8438 53.625 91.6042 53.3958 91.375 52.9375C91.2083 52.625 90.0104 50.4167 87.7812 46.3125C85.6771 42.4375 84.625 40.4792 84.625 40.4375C84.625 40.2917 85.3125 39.8125 86.6875 39C88.375 38.0208 89.6562 37.1146 90.5312 36.2812C91.9062 34.9479 92.5938 33.5521 92.5938 32.0938C92.5938 30.8021 92.1354 29.4896 91.2188 28.1562C89.5312 25.7396 88.6771 24.5104 88.6562 24.4688C87.7396 22.7604 87.2812 20.7917 87.2812 18.5625C87.2812 14.6875 89.1146 11.4792 92.7812 8.9375C95.7604 6.875 99.3854 5.54167 103.656 4.9375C104.427 4.83333 104.75 4.78125 104.625 4.78125C104.729 4.78125 104.875 5.01042 105.062 5.46875C105.979 7.71875 108.198 11.5521 111.719 16.9688C111.781 17.0729 111.812 17.1667 111.812 17.25ZM156.969 12.5625L157.562 12.5938H159.969C160.094 12.5938 160.271 12.5833 160.5 12.5625C160.75 12.5417 160.958 12.5312 161.125 12.5312C160.938 13.5104 160.323 14.8229 159.281 16.4688C158.927 16.8854 158.604 17.3854 158.312 17.9688V17.9375C157.25 19.5417 155.25 22.8958 152.312 28C153.812 31.2292 155.167 34.0833 156.375 36.5625C157.583 39.0208 158.521 40.9375 159.188 42.3125L162.969 50.0312H141.469L139.312 43.5938C138.438 41.0521 137.365 37.6979 136.094 33.5312L134.906 36.2188V49.9688C132.885 50.0312 129.667 50.0625 125.25 50.0625C120.833 50.0625 117.375 50.0417 114.875 50V0.96875H124.812L134.75 0.9375C134.75 3.45833 134.771 7.98958 134.812 14.5312C134.875 21.0729 134.906 25.6667 134.906 28.3125L136.094 24.8125C136.844 22.4167 138.219 18.3333 140.219 12.5625H156.969ZM183.938 12.0625C183.938 16.4375 181.271 18.625 175.938 18.625C173.667 18.625 171.812 18.1042 170.375 17.0625C168.75 15.8958 167.938 14.2292 167.938 12.0625C167.938 10 168.781 8.33333 170.469 7.0625C172.01 5.89583 173.833 5.3125 175.938 5.3125C178.042 5.3125 179.865 5.89583 181.406 7.0625C183.094 8.33333 183.938 10 183.938 12.0625ZM184.25 20C184.25 20.1458 184.229 20.4167 184.188 20.8125C183.458 28.6458 183.094 33.5938 183.094 35.6562C183.094 37.0521 183.125 39.1562 183.188 41.9688C183.271 44.7604 183.312 46.8646 183.312 48.2812C183.312 48.9688 183.292 49.3646 183.25 49.4688C183.146 49.8229 182.823 50 182.281 50C181.552 50 180.458 49.9583 179 49.875C177.562 49.7917 176.479 49.75 175.75 49.75C175.021 49.75 173.927 49.7917 172.469 49.875C171.031 49.9583 169.948 50 169.219 50C168.677 50 168.354 49.8229 168.25 49.4688C168.208 49.3646 168.188 48.9688 168.188 48.2812C168.188 46.8646 168.219 44.7604 168.281 41.9688C168.344 39.1562 168.375 37.0521 168.375 35.6562C168.375 32.4896 168.021 27.5417 167.312 20.8125C167.25 20.4167 167.219 20.1354 167.219 19.9688C167.219 19.4271 167.542 19.1562 168.188 19.1562C169.021 19.1562 170.271 19.2917 171.938 19.5625C173.625 19.8333 174.896 19.9688 175.75 19.9688C176.604 19.9688 177.865 19.8333 179.531 19.5625C181.219 19.2917 182.479 19.1562 183.312 19.1562C183.938 19.1562 184.25 19.4375 184.25 20ZM205.062 6.8125C205.062 6.9375 205.042 7.20833 205 7.625C204.396 14.2917 204.094 20.7604 204.094 27.0312C204.094 29.3438 204.125 32.8229 204.188 37.4688C204.271 42.0938 204.312 45.5625 204.312 47.875C204.312 48.7708 204.302 49.25 204.281 49.3125C204.177 49.7708 203.844 50 203.281 50C202.552 50 201.458 49.9583 200 49.875C198.562 49.7917 197.479 49.75 196.75 49.75C196.021 49.75 194.927 49.7917 193.469 49.875C192.031 49.9583 190.948 50 190.219 50C189.635 50 189.292 49.7708 189.188 49.3125C189.188 49.25 189.188 48.7708 189.188 47.875C189.188 45.5625 189.219 42.0938 189.281 37.4688C189.344 32.8229 189.375 29.3438 189.375 27.0312C189.375 24.7812 189.219 21.4167 188.906 16.9375C188.615 12.4583 188.469 9.10417 188.469 6.875C188.469 6.4375 188.573 6.16667 188.781 6.0625C188.906 6 189.104 5.96875 189.375 5.96875C190.208 5.96875 191.438 6 193.062 6.0625C194.708 6.125 195.938 6.15625 196.75 6.15625C197.562 6.15625 198.781 6.125 200.406 6.0625C202.052 6 203.281 5.96875 204.094 5.96875C204.74 5.96875 205.062 6.25 205.062 6.8125ZM226.062 6.8125C226.062 6.9375 226.042 7.20833 226 7.625C225.396 14.2917 225.094 20.7604 225.094 27.0312C225.094 29.3438 225.125 32.8229 225.188 37.4688C225.271 42.0938 225.312 45.5625 225.312 47.875C225.312 48.7708 225.302 49.25 225.281 49.3125C225.177 49.7708 224.844 50 224.281 50C223.552 50 222.458 49.9583 221 49.875C219.562 49.7917 218.479 49.75 217.75 49.75C217.021 49.75 215.927 49.7917 214.469 49.875C213.031 49.9583 211.948 50 211.219 50C210.635 50 210.292 49.7708 210.188 49.3125C210.188 49.25 210.188 48.7708 210.188 47.875C210.188 45.5625 210.219 42.0938 210.281 37.4688C210.344 32.8229 210.375 29.3438 210.375 27.0312C210.375 24.7812 210.219 21.4167 209.906 16.9375C209.615 12.4583 209.469 9.10417 209.469 6.875C209.469 6.4375 209.573 6.16667 209.781 6.0625C209.906 6 210.104 5.96875 210.375 5.96875C211.208 5.96875 212.438 6 214.062 6.0625C215.708 6.125 216.938 6.15625 217.75 6.15625C218.562 6.15625 219.781 6.125 221.406 6.0625C223.052 6 224.281 5.96875 225.094 5.96875C225.74 5.96875 226.062 6.25 226.062 6.8125ZM260.656 37.0625C260.656 37.2292 260.583 37.4896 260.438 37.8438C260.083 38.7188 259.552 40.6771 258.844 43.7188C258.469 45.2812 258.208 46.8854 258.062 48.5312C257.917 50.2812 257.625 51.1562 257.188 51.1562C256.479 51.1562 255.406 50.9583 253.969 50.5625C252.531 50.1875 251.448 50 250.719 50L246.594 49.9688C242.635 49.9479 239.167 50.0833 236.188 50.375C233.646 50.6458 232.198 50.7812 231.844 50.7812C231.281 50.7812 230.969 50.6458 230.906 50.375C230.885 50.25 230.875 50.0417 230.875 49.75C230.875 49.2917 230.896 48.3229 230.938 46.8438C230.979 45.6354 231 44.6562 231 43.9062C231 43.3021 230.885 42.4583 230.656 41.375C230.427 40.2917 230.312 39.6562 230.312 39.4688C230.312 39.2188 230.542 38.9792 231 38.75C234.125 37.2083 237.094 34.7917 239.906 31.5C239.344 31.5 238.479 31.4792 237.312 31.4375C236.167 31.3958 235.302 31.375 234.719 31.375C234.135 31.375 233.26 31.4062 232.094 31.4688C230.927 31.5104 230.052 31.5312 229.469 31.5312C229.052 31.5312 228.844 31.3958 228.844 31.125C228.844 30.8958 229.354 29.0208 230.375 25.5C231.125 22.8333 231.5 20.2604 231.5 17.7812C231.5 17.5104 231.927 17.375 232.781 17.375C233.26 17.375 233.917 17.4896 234.75 17.7188C235.729 17.9896 236.375 18.1458 236.688 18.1875C238.729 18.4792 241.01 18.6458 243.531 18.6875C245.219 18.7292 247.51 18.7083 250.406 18.625C253.781 18.5417 256.062 18.5 257.25 18.5C258.104 18.5 258.531 18.8854 258.531 19.6562C258.531 20.1562 258.5 20.8958 258.438 21.875C258.375 22.8542 258.344 23.5938 258.344 24.0938C258.344 24.5729 258.375 25.2917 258.438 26.25C258.521 27.2083 258.562 27.9271 258.562 28.4062C258.562 29.0729 257.26 30.6562 254.656 33.1562C252.573 35.1771 250.938 36.6354 249.75 37.5312C252.542 37.4479 254.208 37.3958 254.75 37.375C256.667 37.25 258.312 37.0417 259.688 36.75C259.896 36.7083 260.062 36.6875 260.188 36.6875C260.5 36.6875 260.656 36.8125 260.656 37.0625Z" fill="#002776"/>
</svg>
